<?xml version="1.0" encoding="utf-8"?>
<svg version="1.1" class="icon--mac" xmlns="http://www.w3.org/2000/svg" xmlns:xlink="http://www.w3.org/1999/xlink" x="0px" y="0px"
	 viewBox="0 0 27.8669 33.0835" style="enable-background:new 0 0 27.8669 33.0835;" xml:space="preserve">
<style type="text/css">
	.st0{fill:#FFFFFF;}
</style>
<g>
	<g>
		<g>
			<g>
				<path class="st0" d="M27.2828,25.7821c-0.5003,1.1558-1.0925,2.2198-1.7787,3.198c-0.9353,1.3335-1.7011,2.2566-2.2913,2.7691
					c-0.9149,0.8414-1.8951,1.2722-2.9447,1.2968c-0.7535,0-1.6623-0.2144-2.7201-0.6494
					c-1.0613-0.4329-2.0366-0.6474-2.9284-0.6474c-0.9353,0-1.9384,0.2144-3.0113,0.6474c-1.0746,0.435-1.9402,0.6617-2.6021,0.6841
					c-1.0066,0.0429-2.0099-0.4003-3.0113-1.3315c-0.6392-0.5575-1.4387-1.5132-2.3964-2.8671
					c-1.0276-1.4458-1.8724-3.1224-2.5343-5.0338C0.3553,21.7836,0,19.7844,0,17.8488c0-2.2171,0.4791-4.1294,1.4387-5.7318
					c0.7542-1.2872,1.7575-2.3025,3.0132-3.0479s2.6125-1.1252,4.0736-1.1495c0.7995,0,1.8479,0.2473,3.1508,0.7333
					c1.2992,0.4877,2.1334,0.735,2.4992,0.735c0.2734,0,1.2002-0.2892,2.7712-0.8657c1.4856-0.5346,2.7395-0.756,3.7667-0.6688
					c2.7834,0.2246,4.8746,1.3219,6.2652,3.2987c-2.4894,1.5083-3.7208,3.6209-3.6963,6.331
					c0.0225,2.1109,0.7883,3.8676,2.2933,5.2624c0.6821,0.6474,1.4438,1.1477,2.2913,1.503
					C27.6831,24.7814,27.4891,25.292,27.2828,25.7821L27.2828,25.7821z M20.8991,0.6619c0,1.6546-0.6045,3.1994-1.8093,4.6293
					c-1.454,1.6999-3.2127,2.6821-5.1198,2.5271c-0.0243-0.1985-0.0384-0.4074-0.0384-0.6269c0-1.5884,0.6915-3.2882,1.9194-4.6781
					c0.613-0.7037,1.3927-1.2888,2.3382-1.7556C19.1327,0.2978,20.0251,0.0435,20.8644,0
					C20.8889,0.2212,20.8991,0.4424,20.8991,0.6619L20.8991,0.6619z"/>
			</g>
		</g>
	</g>
</g>
</svg>
